<?xml version="1.0" encoding="iso-8859-1"?>
<!-- Generator: Adobe Illustrator 19.0.0, SVG Export Plug-In . SVG Version: 6.00 Build 0)  -->
<svg version="1.1" id="Capa_1" xmlns="http://www.w3.org/2000/svg" xmlns:xlink="http://www.w3.org/1999/xlink" x="0px" y="0px"
	 viewBox="0 0 374.64 374.64" style="enable-background:new 0 0 374.64 374.64;" xml:space="preserve">
<g>
	<g>
		<path d="M357.84,247.492l11.92-20.08l0.08-0.56c2.673-3.843,4.325-8.303,4.8-12.96c0-6.56-3.44-11.44-14.24-11.44h-48
			c0.747-3.253,1.387-6.56,1.92-9.92c10.739-70.14-37.415-135.706-107.555-146.445C136.625,35.347,71.059,83.501,60.32,153.641
			c-1.973,12.888-1.973,26.002,0,38.89c0.48,3.307,1.12,6.613,1.92,9.92h-48c-10.8,0-14.24,4.88-14.24,11.44
			c0.475,4.657,2.127,9.117,4.8,12.96l11.92,20.48l-11.6,20.64c-2.673,3.843-4.325,8.303-4.8,12.96c0,6.56,3.44,11.44,14.24,11.44
			h36.88v16c-0.203,5.558,1.812,10.968,5.6,15.04l0.4,0.48c3.942,3.953,9.298,6.17,14.88,6.16h230.24
			c11.589-0.088,20.924-9.531,20.88-21.12v-16h36.88c10.8,0,14.24-4.88,14.24-11.44c-0.475-4.657-2.127-9.117-4.8-12.96
			L357.84,247.492z M106.24,92.131L106.24,92.131c44.819-44.846,117.506-44.867,162.352-0.048
			c21.556,21.543,33.661,50.773,33.648,81.248c0.016,9.824-1.221,19.609-3.68,29.12h-11.12c0.907-3.147,1.68-6.32,2.32-9.52
			c10.282-56.51-27.193-110.655-83.702-120.938C149.548,61.712,95.402,99.186,85.12,155.696c-2.24,12.311-2.24,24.925,0,37.235
			c0.64,3.2,1.413,6.373,2.32,9.52H76.32C66.043,162.974,77.425,121.006,106.24,92.131z M114.72,206.611l-0.48-0.48
			c-2.618-2.408-6.043-3.75-9.6-3.76h-2.96c-1.341-3.922-2.41-7.931-3.2-12c-1.071-5.643-1.607-11.376-1.6-17.12
			c0-49.993,40.527-90.52,90.52-90.52c49.993,0,90.52,40.527,90.52,90.52c0.007,5.744-0.529,11.476-1.6,17.12
			c-0.79,4.069-1.859,8.078-3.2,12h-2.96c-3.557,0.01-6.982,1.352-9.6,3.76l-0.48,0.48c-2.669,2.675-4.166,6.301-4.16,10.08v15.12
			H118.96v-15.12C118.945,212.901,117.419,209.273,114.72,206.611z M57.44,237.971c-3.894,3.968-6.053,9.321-6,14.88v26.08h-36.8
			c0.56-1.2,1.44-2.72,2.16-3.92l13.84-24c1.246-2.124,1.246-4.756,0-6.88l-13.84-24c-0.72-1.28-1.6-2.72-2.16-3.92h90.48
			c0.043,0.13,0.043,0.27,0,0.4v15.12h-32.8c-5.555,0.011-10.878,2.227-14.8,6.16L57.44,237.971z M309.84,308.931
			c-0.043,4.047-3.313,7.317-7.36,7.36H72.32c-1.951-0.002-3.822-0.779-5.2-2.16c-1.236-1.356-1.921-3.125-1.92-4.96v-56
			c0-4.065,3.295-7.36,7.36-7.36h230c1.951,0.002,3.822,0.779,5.2,2.16c1.381,1.378,2.158,3.249,2.16,5.2L309.84,308.931z
			 M323.44,278.851v-26c0.01-5.582-2.207-10.938-6.16-14.88c-3.922-3.933-9.245-6.149-14.8-6.16H269.6v-15.12
			c-0.043-0.13-0.043-0.27,0-0.4h90.64c-0.64,1.04-1.44,2.48-2.16,3.76l-0.24,0l-13.84,24c-1.246,2.124-1.246,4.756,0,6.88l13.84,24
			c0.72,1.28,1.6,2.72,2.16,3.92H323.44z"/>
	</g>
</g>
<g>
	<g>
		<path d="M234.992,144.835c-0.943-0.965-2.151-1.628-3.472-1.904l-25.28-5.36l-12.88-22.16c-1.886-3.247-6.048-4.351-9.296-2.464
			c-1.022,0.593-1.871,1.443-2.464,2.464l-12.88,22.4l-25.28,5.36c-3.677,0.763-6.04,4.362-5.277,8.039
			c0.244,1.176,0.795,2.267,1.597,3.161l17.28,19.36l-2.72,25.68c-0.412,3.733,2.28,7.093,6.013,7.505
			c1.197,0.132,2.407-0.056,3.507-0.545l23.6-10.96l23.28,10.4c3.348,1.701,7.441,0.366,9.143-2.982
			c0.598-1.178,0.841-2.504,0.697-3.818l-2.72-25.68l17.04-18.88C237.566,151.827,237.617,147.522,234.992,144.835z M205.6,166.851
			c-1.284,1.442-1.895,3.361-1.68,5.28l1.84,16.96l-15.52-6.96c-1.757-0.78-3.763-0.78-5.52,0l-15.52,6.96l1.84-16.96
			c0.228-2.075-0.509-4.139-2-5.6l-11.12-12.32l16.48-3.44c2.114-0.269,3.979-1.512,5.04-3.36l8-14.48l8.48,14.48
			c0.959,1.681,2.588,2.874,4.48,3.28l16.64,3.52L205.6,166.851z"/>
	</g>
</g>
<g>
</g>
<g>
</g>
<g>
</g>
<g>
</g>
<g>
</g>
<g>
</g>
<g>
</g>
<g>
</g>
<g>
</g>
<g>
</g>
<g>
</g>
<g>
</g>
<g>
</g>
<g>
</g>
<g>
</g>
</svg>
