<svg width="25" height="24" viewBox="0 0 25 24" fill="none" xmlns="http://www.w3.org/2000/svg">
<path d="M20.987 17.14L16.922 13.444C16.7299 13.2693 16.4774 13.1762 16.2178 13.1842C15.9583 13.1922 15.712 13.3008 15.531 13.487L13.138 15.948C12.562 15.838 11.404 15.477 10.212 14.288C9.02004 13.095 8.65904 11.934 8.55204 11.362L11.011 8.968C11.1975 8.78712 11.3062 8.54082 11.3142 8.2812C11.3222 8.02159 11.2289 7.76904 11.054 7.57699L7.35904 3.51299C7.18408 3.32035 6.94092 3.2035 6.68119 3.18725C6.42146 3.17101 6.16564 3.25665 5.96804 3.42599L3.79804 5.28699C3.62515 5.46051 3.52196 5.69145 3.50804 5.93599C3.49304 6.18599 3.20704 12.108 7.79904 16.702C11.805 20.707 16.823 21 18.205 21C18.407 21 18.531 20.994 18.564 20.992C18.8086 20.9783 19.0394 20.8747 19.212 20.701L21.072 18.53C21.2421 18.333 21.3283 18.0774 21.3124 17.8177C21.2966 17.558 21.1798 17.3148 20.987 17.14Z" fill="white"/>
</svg>
