<svg width="25" height="25" viewBox="0 0 25 25" fill="none" xmlns="http://www.w3.org/2000/svg">
<rect x="0.5" y="0.980713" width="24" height="24" rx="5" fill="#5C6AC4"/>
<path d="M16.4712 12.0322C16.4862 10.2247 14.9469 8.56786 13.04 8.33848C12.9988 8.33334 12.9577 8.32709 12.9169 8.31973C12.821 8.30138 12.7238 8.29093 12.6262 8.28848C12.235 8.28848 12.1306 8.56348 12.1031 8.72661C12.0762 8.88598 12.1019 9.02036 12.1787 9.12473C12.3081 9.30036 12.5362 9.33161 12.7194 9.35661C12.7725 9.36411 12.8231 9.37098 12.8656 9.38036C14.5794 9.76348 15.1562 10.3654 15.4381 12.0647C15.445 12.106 15.4481 12.1572 15.4519 12.2116C15.4644 12.4147 15.4894 12.8372 15.9437 12.8372C15.9812 12.8372 16.0225 12.8341 16.065 12.8279C16.4875 12.7635 16.4744 12.3772 16.4681 12.1916C16.4662 12.1391 16.4644 12.0897 16.4694 12.0566C16.4704 12.0483 16.4708 12.04 16.4706 12.0316L16.4712 12.0322Z" fill="white"/>
<path d="M12.515 7.67533C12.5663 7.67908 12.6138 7.68283 12.6538 7.68846C15.4682 8.12158 16.7625 9.45471 17.1207 12.291C17.1269 12.3391 17.1282 12.3978 17.1288 12.4597C17.1325 12.6816 17.14 13.1428 17.635 13.1522H17.65C17.8057 13.1522 17.9288 13.1053 18.0175 13.0128C18.1713 12.8522 18.1613 12.6128 18.1519 12.4203C18.15 12.3728 18.1482 12.3285 18.1482 12.2891C18.1844 9.38908 15.6732 6.75846 12.7757 6.66096C12.7632 6.66096 12.7519 6.66096 12.7407 6.66283C12.7293 6.66427 12.7178 6.6649 12.7063 6.66471C12.6769 6.66471 12.6419 6.66221 12.6038 6.65971C12.5588 6.65658 12.5069 6.65283 12.4538 6.65283C11.9925 6.65283 11.905 6.98096 11.8938 7.17658C11.8682 7.62846 12.305 7.66033 12.515 7.67533ZM16.985 15.9566C16.9247 15.9107 16.8649 15.864 16.8057 15.8166C16.4982 15.5691 16.1713 15.3416 15.8557 15.121L15.6588 14.9835C15.2538 14.6991 14.89 14.561 14.5463 14.561C14.0825 14.561 13.6788 14.8172 13.345 15.3216C13.1975 15.5453 13.0182 15.6541 12.7975 15.6541C12.6443 15.6487 12.4939 15.611 12.3563 15.5435C11.05 14.951 10.1163 14.0422 9.58254 12.8428C9.32442 12.2628 9.40817 11.8841 9.86192 11.5753C10.12 11.4003 10.5994 11.0747 10.5663 10.4503C10.5275 9.74221 8.96442 7.61033 8.30567 7.36846C8.02406 7.26573 7.71537 7.26485 7.43317 7.36596C6.67629 7.62033 6.13379 8.06783 5.86192 8.65846C5.59942 9.22971 5.61192 9.90033 5.89567 10.5978C6.71754 12.6147 7.87254 14.3735 9.32942 15.8247C10.755 17.2453 12.5075 18.4085 14.5375 19.2828C14.7207 19.3616 14.9125 19.4047 15.0532 19.436C15.1007 19.4466 15.1419 19.456 15.1719 19.4641C15.1884 19.4685 15.2054 19.4708 15.2225 19.471H15.2388C16.1938 19.471 17.3407 18.5985 17.6925 17.6041C18.0013 16.7328 17.4375 16.3022 16.985 15.9566ZM12.9375 9.97971C12.7744 9.98346 12.4338 9.99221 12.3144 10.3385C12.2582 10.501 12.265 10.641 12.3344 10.7566C12.4357 10.9253 12.63 10.9778 12.8063 11.0066C13.4469 11.1091 13.7763 11.4628 13.8419 12.121C13.8725 12.4272 14.0794 12.6416 14.3438 12.6416C14.3639 12.6416 14.3839 12.6403 14.4038 12.6378C14.7225 12.6003 14.8769 12.366 14.8632 11.9416C14.8682 11.4991 14.6369 10.9966 14.2425 10.5966C13.8475 10.1953 13.3713 9.96908 12.9375 9.97971Z" fill="white"/>
</svg>
