<svg width="25" height="24" viewBox="0 0 25 24" fill="none" xmlns="http://www.w3.org/2000/svg">
<rect x="0.480469" width="24" height="24" fill="white"/>
<path fill-rule="evenodd" clip-rule="evenodd" d="M11.7783 16.9386H12.8144C12.8144 16.9386 13.1252 16.8868 13.2806 16.7314C13.436 16.5759 13.436 16.2651 13.436 16.2651C13.436 16.2651 13.436 14.9182 14.0577 14.711C14.6794 14.5037 15.5082 16.0579 16.3371 16.6278C16.9588 17.094 17.425 16.9904 17.425 16.9904L19.7045 16.9386C19.7045 16.9386 20.896 16.8868 20.3261 15.9025C20.2743 15.8507 20.0153 15.229 18.6166 13.9339C17.166 12.587 17.3732 12.846 19.0828 10.5147C20.1189 9.11601 20.5333 8.28713 20.4297 7.87269C20.3261 7.51005 19.549 7.61366 19.549 7.61366H16.9588C16.9588 7.61366 16.7516 7.56185 16.648 7.66546C16.4925 7.76908 16.4407 7.92449 16.4407 7.92449C16.4407 7.92449 16.0263 9.0124 15.5082 9.94489C14.3685 11.8617 13.9023 11.9653 13.7469 11.8617C13.3324 11.6027 13.436 10.722 13.436 10.1521C13.436 8.28713 13.7469 7.51005 12.8662 7.30283C12.6072 7.25102 12.3999 7.19922 11.6747 7.19922C10.7422 7.19922 9.9651 7.19922 9.55066 7.40644C9.23983 7.56185 9.03261 7.87269 9.18802 7.87269C9.34344 7.87269 9.75788 7.9763 9.9651 8.23532C10.1723 8.70157 10.1723 9.47864 10.1723 9.47864C10.1723 9.47864 10.3277 11.7063 9.80968 11.9653C9.44705 12.1725 8.9808 11.7581 7.9447 9.9967C7.42665 9.11601 7.0122 8.07991 7.0122 8.07991C7.0122 8.07991 6.9604 7.87269 6.80498 7.76908C6.64957 7.66547 6.39054 7.61366 6.39054 7.61366H3.9557C3.9557 7.61366 3.59307 7.61366 3.43765 7.76908C3.33404 7.92449 3.43765 8.18352 3.43765 8.18352C3.43765 8.18352 5.35444 12.6388 7.53026 14.9182C9.55066 17.094 11.7783 16.9386 11.7783 16.9386Z" fill="black"/>
</svg>
