<svg width="25" height="25" viewBox="0 0 25 25" fill="none" xmlns="http://www.w3.org/2000/svg">
<path d="M24.5 6.44071C24.4865 5.923 24.4465 5.40632 24.38 4.89271C24.2904 4.44286 24.1411 4.007 23.936 3.59671C23.7215 3.15164 23.4335 2.74594 23.084 2.39671C22.7313 2.05136 22.3263 1.76382 21.884 1.54471C21.4732 1.34365 21.0373 1.19836 20.588 1.11271C20.0793 1.03651 19.5663 0.992425 19.052 0.980713H5.96C5.44229 0.994197 4.92561 1.03425 4.412 1.10071C3.96215 1.19031 3.52629 1.33964 3.116 1.54471C2.67093 1.7592 2.26523 2.04724 1.916 2.39671C1.57065 2.74941 1.28311 3.15439 1.064 3.59671C0.862933 4.00755 0.717648 4.4434 0.632 4.89271C0.555799 5.40143 0.511712 5.91445 0.5 6.42871V19.5207C0.513484 20.0384 0.553536 20.5551 0.62 21.0687C0.709602 21.5186 0.858924 21.9544 1.064 22.3647C1.27848 22.8098 1.56653 23.2155 1.916 23.5647C2.26869 23.9101 2.67367 24.1976 3.116 24.4167C3.52684 24.6178 3.96269 24.7631 4.412 24.8487C4.92072 24.9249 5.43374 24.969 5.948 24.9807H19.04C19.5577 24.9672 20.0744 24.9272 20.588 24.8607C21.0379 24.7711 21.4737 24.6218 21.884 24.4167C22.3291 24.2022 22.7348 23.9142 23.084 23.5647C23.4294 23.212 23.7169 22.807 23.936 22.3647C24.1371 21.9539 24.2824 21.518 24.368 21.0687C24.4442 20.56 24.4883 20.047 24.5 19.5327V7.07671V6.44071ZM12.776 21.3807C11.3349 21.3736 9.91896 21.0021 8.66 20.3007L4.1 21.5007L5.3 17.0367C4.52614 15.7365 4.11198 14.2538 4.1 12.7407C4.10478 11.0402 4.61264 9.37917 5.55963 7.96676C6.50662 6.55435 7.85038 5.45375 9.42167 4.80357C10.993 4.15339 12.7215 3.98272 14.3896 4.31304C16.0577 4.64336 17.5908 5.45991 18.7957 6.65984C20.0006 7.85977 20.8236 9.38942 21.1608 11.0561C21.4981 12.7229 21.3346 14.4521 20.6909 16.0261C20.0473 17.6001 18.9523 18.9484 17.5438 19.9012C16.1354 20.8541 14.4765 21.3689 12.776 21.3807ZM12.776 5.62471C11.5038 5.63927 10.2581 5.99069 9.16587 6.6432C8.07362 7.2957 7.17377 8.22599 6.55796 9.33934C5.94214 10.4527 5.63234 11.7093 5.6601 12.9813C5.68786 14.2534 6.05219 15.4953 6.716 16.5807L6.884 16.8567L6.164 19.4847L8.9 18.7407L9.164 18.8967C10.2555 19.5396 11.4973 19.8832 12.764 19.8927C14.6736 19.8927 16.5049 19.1341 17.8552 17.7839C19.2054 16.4336 19.964 14.6023 19.964 12.6927C19.964 10.7832 19.2054 8.95181 17.8552 7.60154C16.5049 6.25128 14.6736 5.49271 12.764 5.49271L12.776 5.62471ZM16.976 15.8487C16.8188 16.1109 16.6084 16.3371 16.3583 16.5128C16.1081 16.6885 15.8239 16.8098 15.524 16.8687C15.0758 16.9506 14.6145 16.9218 14.18 16.7847C13.7712 16.6569 13.3705 16.5046 12.98 16.3287C11.4965 15.5843 10.2313 14.468 9.308 13.0887C8.80626 12.4497 8.50183 11.6782 8.432 10.8687C8.42485 10.5325 8.48846 10.1985 8.6187 9.88837C8.74894 9.57828 8.9429 9.29902 9.188 9.06871C9.2602 8.98686 9.34877 8.92107 9.44799 8.87559C9.5472 8.83011 9.65486 8.80597 9.764 8.80471H10.1C10.232 8.80471 10.412 8.80471 10.58 9.17671C10.748 9.54871 11.192 10.6647 11.252 10.7727C11.2815 10.8303 11.2969 10.894 11.2969 10.9587C11.2969 11.0234 11.2815 11.0871 11.252 11.1447C11.199 11.2751 11.1261 11.3965 11.036 11.5047C10.928 11.6367 10.808 11.7927 10.712 11.8887C10.616 11.9847 10.496 12.1047 10.616 12.3207C10.9425 12.8717 11.3467 13.3729 11.816 13.8087C12.3271 14.2603 12.9115 14.6215 13.544 14.8767C13.76 14.9847 13.892 14.9727 14.012 14.8767C14.132 14.7807 14.552 14.2527 14.696 14.0367C14.84 13.8207 14.984 13.8567 15.176 13.9287C15.368 14.0007 16.436 14.5167 16.652 14.6247C16.868 14.7327 17 14.7807 17.06 14.8767C17.112 15.1908 17.0831 15.5129 16.976 15.8127V15.8487Z" fill="#15CF74"/>
</svg>
