<svg width="25" height="24" viewBox="0 0 25 24" fill="none" xmlns="http://www.w3.org/2000/svg">
<rect x="0.980469" width="24" height="24" fill="white"/>
<path d="M21.206 7.88466C21.1084 7.52257 20.9177 7.19235 20.6528 6.92688C20.388 6.6614 20.0582 6.46993 19.6963 6.37151C18.3545 6.00307 12.9865 5.99708 12.9865 5.99708C12.9865 5.99708 7.61935 5.99108 6.2767 6.34323C5.91506 6.44618 5.58595 6.64036 5.32097 6.90714C5.05599 7.17392 4.86404 7.50434 4.76355 7.86667C4.40968 9.20846 4.40625 11.9914 4.40625 11.9914C4.40625 11.9914 4.40282 14.7881 4.75412 16.1162C4.95119 16.8505 5.52955 17.4306 6.26471 17.6285C7.62021 17.9969 12.9737 18.0029 12.9737 18.0029C12.9737 18.0029 18.3417 18.0089 19.6835 17.6576C20.0455 17.5594 20.3756 17.3683 20.6411 17.1034C20.9066 16.8385 21.0984 16.5088 21.1975 16.147C21.5522 14.8061 21.5548 12.024 21.5548 12.024C21.5548 12.024 21.5719 9.22645 21.206 7.88466ZM11.2694 14.5696L11.2737 9.42867L15.7352 12.0034L11.2694 14.5696Z" fill="black"/>
</svg>
